name processed_emg_signals
nRows=90
nColumns=7
 
endheader
time	RGLTMED	RRF	RADDLONG	RST	RTA	RGM
0.0	0.0659050661586002	0.2089307834073522	0.1210160586942888	0.036599109409861	0.0420240672349513	0.0017981419062146
0.001	0.0712983665318912	0.1926710438444418	0.112338519622322	0.0385850402054594	0.0466705011248618	0.0021597398705699
0.002	0.0767876501507369	0.1764002137739368	0.1036995034275269	0.0405623501393547	0.0512898984737534	0.0061014125595193
0.003	0.0823712280773019	0.1601252190728773	0.0951031897299462	0.0425292647020526	0.0558795856261237	0.0100244252235886
0.004	0.088047325049555	0.1438529233752389	0.0865536592675628	0.0444840164151869	0.060436955872012	0.0139263461671174
0.005	0.0938140811847031	0.1275901197483165	0.0780548872339145	0.0464248482299749	0.0649594753153271	0.0178047663043535
0.006	0.0996695537868018	0.111343522633553	0.0696107368736151	0.0483500168887556	0.0694446886673644	0.0216573024809196
0.007	0.1056117192527317	0.095119760070759	0.0612249533570407	0.0502577962345732	0.0738902249496516	0.0254816007405415
0.008	0.1116384750713162	0.0789253662235657	0.0529011579534709	0.0521464804569375	0.0782938030910303	0.0292753395301291
0.009000000000000001	0.117747641910405	0.0627667742228501	0.044642842520687	0.054014387264266	0.0826532374044866	0.0330362328367964
0.01	0.1239369657872795	0.0466503093435616	0.0364533643269412	0.0558598609759508	0.0869664429295739	0.0367620332507443
0.011	0.1302041203174839	0.0305821825289843	0.0283359412195273	0.0576812755284438	0.0912314406266059	0.040450534948145
0.012	0.1365467090377582	0.0145684842747218	0.0202936471524069	0.0594770373908133	0.0954463624089296	0.044099576588397
0.013000000000000001	0.1429622677987934	0.0013848211170515	0.012329408083348	0.0612455883855103	0.099609455999787	0.0477070441202119
0.014	0.1494482672239513	0.0172719009044479	0.0044459982496515	0.0629854084104047	0.1037190896006959	0.0512708734911054
0.015	0.1560021152304657	0.0330870588871891	0.0033539631700951	0.064695018058387	0.1077737563587177	0.0547890532548648
0.016	0.1626211596096955	0.0488247399977574	0.0110680150024984	0.0663729811311244	0.1117720786206006	0.0582596270716174
0.017	0.1693026906633268	0.0644795344998555	0.0186938566302021	0.0680179070438909	0.115712811962293	0.0616806960952898
0.018000000000000002	0.1760439438923566	0.0800461817937332	0.0262293501449756	0.0696284531184379	0.1195948489826141	0.0650504212435196
0.019	0.1828421027359561	0.0955195738300341	0.0336725221028449	0.0712033267611439	0.1234172228501224	0.0683670253454154
0.02	0.1896943013572897	0.1108947581356302	0.0410215648825892	0.0727412875236932	0.1271791105921212	0.0716287951630977
0.021	0.1965976274732991	0.1261669404563824	0.048274837650684	0.074241149043769	0.1308798361147401	0.074834083283363
0.022	0.2035491252253388	0.1413314870229301	0.0554308669369495	0.0757017808633592	0.1345188729427846	0.0779813098762578
0.023	0.2105457980868963	0.1563839264465027	0.0624883468267629	0.0771221101223164	0.1380958466680374	0.0810689643175982
0.024	0.2175846118044405	0.1713199512525572	0.0694461387765272	0.0785011231247725	0.1416105370945293	0.0840956066728433
0.025	0.224662497366875	0.1861354190607622	0.0763032710607174	0.0798378667761399	0.1450628800695012	0.0870598690401396
0.026000000000000002	0.2317763539989074	0.2008263534205746	0.0830589378593298	0.0811314498884968	0.1484529689890164	0.0899604567509441
0.027	0.2389230521734003	0.2153889443125753	0.0897124979959268	0.08238104435256	0.1517810559677542	0.092796149427155
0.028	0.2460994366381109	0.2298195483266834	0.0962634733365392	0.0835858861747373	0.1550475526630795	0.0955658018942045
0.029	0.2533023294520883	0.2441146885291405	0.1027115468601906	0.0847452763781407	0.1582530307442418	0.0982683449499696
0.03	0.2605285330272546	0.2582710540308461	0.1090565604120933	0.0858585817665789	0.161398221998337	0.1009027859898468
0.031	0.2677748331705579	0.2722854992698572	0.1152985121505764	0.0869252355506207	0.1644840180657274	0.1034682094887846
0.032	0.275038002122193	0.2861550430206834	0.1214375536991561	0.0879447378349963	0.1675114697988339	0.1059637773414105
0.033	0.2823148015852042	0.2998768671425368	0.1274739870152792	0.0889166559665734	0.1704817862396833	0.1083887290616531
0.034	0.2896019857419856	0.3134483150782025	0.1334082609873458	0.0898406247425138	0.1733963332135557	0.1107423818433403
0.035	0.2968963042530408	0.3268668901146634	0.1392409677717862	0.090716346478221	0.1762566315379739	0.1130241304832798
0.036000000000000004	0.3041945052341207	0.3401302534163282	0.1449728388824482	0.0915435909351725	0.179064354848102	0.115233447168293
0.037	0.3114933382082378	0.3532362218414797	0.150604741044766	0.0923221951093899	0.1818213270410777	0.1173698811277194
0.038	0.3187895570298845	0.3661827655525013	0.1561376718280407	0.0930520628820452	0.1845295193434905	0.119433058152997
0.039	0.3260799227785691	0.3789680054306223	0.1615727550690127	0.0937331645347133	0.1871910470076554	0.121422679986227
0.04	0.3333612066184157	0.3915902103063561	0.1669112361009737	0.0943655361327645	0.189808165643618	0.1233385235802601
0.041	0.3406301926203568	0.4040477940176794	0.1721544768022929	0.0949492787814823	0.1923832671946703	0.125180440233687
0.042	0.3478836805428184	0.4163393123084659	0.1773039504790373	0.0954845577605185	0.1949188755644223	0.1269483546052761
0.043000000000000003	0.3551184885671201	0.4284634595804114	0.1823612365961324	0.0959716015429405	0.1974176419034916	0.1286422636135984
0.044	0.3623314559834684	0.4404190655116803	0.1873280153719234	0.0964107007056383	0.1998823395634778	0.1302622352288592
0.045	0.3695194458232416	0.4522050915554276	0.1922060622509233	0.0968022067378462	0.2023158587257649	0.1318084071649503
0.046	0.3766793474330405	0.4638206273309392	0.1969972422693912	0.0971465307545463	0.2047212007127335	0.1332809854804535
0.047	0.3838080789856435	0.4752648869198522	0.201703504327977	0.0974441421213493	0.2071014719895772	0.1346802430976073
0.048	0.3909025899225866	0.4865372050794595	0.2063268753852103	0.0976955669973551	0.2094598778659423	0.1360065182483411
0.049	0.3979598633227316	0.4976370333847738	0.2108694545853388	0.097901386802349	0.2117997159079146	0.1372602128561977
0.05	0.404976918190928	0.5085639363106691	0.2153334073333263	0.0980622366143628	0.2141243690723877	0.1384417908626755
0.051000000000000004	0.4119508116605948	0.5193175872649882	0.2197209593297277	0.0981788035035757	0.2164372985771213	0.1395517765061265
0.052000000000000005	0.4188786411042286	0.5298977645834342	0.2240343905772692	0.0982518248080814	0.2187420365206978	0.1405907525608796
0.053	0.4257575461463927	0.540304347496957	0.2282760293708164	0.0982820863569619	0.2210421782671494	0.1415593585439147
0.054	0.4325847105739531	0.5505373120828981	0.2324482462816929	0.098270420645781	0.2233413746101381	0.1424582888959724
0.055	0.4393573641386258	0.560596727211774	0.2365534481469114	0.0982177049693802	0.2256433237315046	0.1432882911435621
0.056	0.4460727842467359	0.57048275050212	0.2405940720734778	0.0981248595166051	0.2279517629686583	0.1440501640479083
0.057	0.4527282975307694	0.5801956242961481	0.2445725794679555	0.0979928454313743	0.230270460405274	0.1447447557464423
0.058	0.4593212812972475	0.5897356716686841	0.2484914501009577	0.0978226628441864	0.2326032062997772	0.1453729618920416
0.059000000000000004	0.465849164845122	0.5991032924813359	0.2523531762164086	0.0976153488780008	0.2349538043668274	0.1459357237948462
0.06	0.4723094306488447	0.6082989594930038	0.2561602566945992	0.0973719756322369	0.237326062927616	0.1464340265711043
0.061	0.4786996154001861	0.6173232145367714	0.2599151912781905	0.0970936481484969	0.2397237859458142	0.1468688973031429
0.062	0.4850173109035566	0.6261766647722753	0.2636204748697504	0.0967815023614222	0.2421507639669078	0.1472414032142567
0.063	0.491260164820089	0.6348599790215308	0.2672785919095142	0.096436703037927	0.2446107649798321	0.1475526498620243
0.064	0.4974258812559882	0.6433738841956368	0.2708920108424673	0.0960604417077288	0.2471075252208625	0.1478037793533116
0.065	0.5035122211906289	0.6517191618192677	0.2744631786837598	0.0956539345880699	0.249644739940501	0.1479959685839303
0.066	0.5095170027399148	0.6598966446596077	0.2779945156920188	0.0952184205053419	0.2522260541544215	0.1481304275056468
0.067	0.5154381012508953	0.6679072134655841	0.2814884101602057	0.0947551588163219	0.2548550533997727	0.1482083974229484
0.068	0.5212734492258945	0.6757517938222771	0.2849472133337071	0.0942654273316659	0.2575352545182851	0.1482311493216927
0.069	0.527021036076738	0.6834313531235314	0.2883732344653057	0.0937505202443172	0.260270096488082	0.1481999822313389
0.07	0.5326789077115875	0.6909468976639681	0.2917687360168425	0.093211746065273	0.2630629313264903	0.1481162216220661
0.07100000000000001	0.5382451659582206	0.6982994698495409	0.2951359290165389	0.0926504255691844	0.2659170150864686	0.1479812178376151
0.07200000000000001	0.5437179678281736	0.7054901455238426	0.298476968581002	0.0920678897521646	0.2688354989693964	0.1477963445642003
0.073	0.5490955246267243	0.7125200314060313	0.3017939496097379	0.0914654778040569	0.2718214205768728	0.1475629973353698
0.074	0.5543761009156452	0.7193902626352088	0.305088902659444	0.0908445350974027	0.2748776953238639	0.1472825920721708
0.075	0.5595580133384537	0.726102000415955	0.3083637900044579	0.0902064111951613	0.2780071080350789	0.1469565636575659
0.076	0.5646396293213839	0.732656429759969	0.311620501888863	0.0895524578790115	0.2812123047457387	0.1465863645436532
0.077	0.5696193656666421	0.7390547573190649	0.3148608529748887	0.0888840272000288	0.2844957847271682	0.1461734633898667
0.078	0.5744956870564935	0.7452982093047548	0.3180865789916534	0.0882024695534877	0.287859892756843	0.145719343729982
0.079	0.5792671044875853	0.7513880294889341	0.3212993335875494	0.0875091317795642	0.2913068116517299	0.1452255026653471
0.08	0.5839321736547727	0.7573254772793085	0.3245006853889305	0.0868053552920837	0.2948385550829316	0.1446934495814021
0.081	0.5884894933036001	0.7631118258617856	0.3276921152670103	0.0860924742374409	0.2984569606887486	0.1441247048842696
0.082	0.5929377035700858	0.7687483604008659	0.3308750138141475	0.085371813685966	0.3021636835023328	0.1435207987538857
0.083	0.5972754843257297	0.7742363762879523	0.334050679030169	0.0846446878578461	0.3059601897090975	0.1428832699099711
0.084	0.6015015535446685	0.7795771774266932	0.3372203142189056	0.0839123983855918	0.3098477507481541	0.1422136643869851
0.085	0.6056146657086996	0.7847720745438338	0.3403850260945686	0.0831762326148407	0.313827437770982	0.141513534314368
0.08600000000000001	0.6096136102656914	0.7898223835134632	0.3435458230974949	0.082437461945198	0.3179001164698023	0.1407844366986153
0.08700000000000001	0.6134972101561673	0.7947294236822134	0.3467036139181068	0.0816973402127381	0.3220664422872469	0.140027932204189
0.088	0.617264320422855	0.799494516183375	0.3498592062284475	0.0809571021157754	0.3263268560185707	0.1392455839307252
0.089	0.6209138269169101	0.804118982228575	0.3530133056198742	0.0802179616855881	0.3306815798173911	0.1384389561844588
